<svg width="124" height="36" viewBox="0 0 124 36" fill="none" xmlns="http://www.w3.org/2000/svg">
<rect width="124" height="36" rx="4" fill="black" fill-opacity="0.3"/>
<path d="M17.984 23L19.008 20.296H23.536L24.56 23H26.544L22.352 12.28H20.272L16.08 23H17.984ZM20.704 15.832L21.28 13.896L21.856 15.832L22.944 18.728H19.6L20.704 15.832ZM29.9136 23.176C31.4656 23.176 32.1216 22.136 32.3776 20.936V23H34.1696V12.28H32.3776V17.304C32.1216 16.088 31.4336 15.048 29.8816 15.048C27.9936 15.048 26.7776 16.6 26.7776 19.112C26.7776 21.624 27.9936 23.176 29.9136 23.176ZM28.6176 19.112C28.6176 17.368 29.4656 16.504 30.5856 16.504C31.8496 16.504 32.3776 17.352 32.3776 18.632V19.608C32.3776 20.888 31.8496 21.72 30.6016 21.72C29.4656 21.72 28.6176 20.872 28.6176 19.112ZM38.7574 23.176C40.3094 23.176 40.9654 22.136 41.2214 20.936V23H43.0134V12.28H41.2214V17.304C40.9654 16.088 40.2774 15.048 38.7254 15.048C36.8374 15.048 35.6214 16.6 35.6214 19.112C35.6214 21.624 36.8374 23.176 38.7574 23.176ZM37.4614 19.112C37.4614 17.368 38.3094 16.504 39.4294 16.504C40.6934 16.504 41.2214 17.352 41.2214 18.632V19.608C41.2214 20.888 40.6934 21.72 39.4454 21.72C38.3094 21.72 37.4614 20.872 37.4614 19.112ZM51.4413 20.664C53.3613 20.664 54.6573 19.512 54.6573 17.864C54.6573 16.888 54.2093 16.088 53.4413 15.592L54.8973 13.992L53.1693 13.4L52.7853 15.272C52.3853 15.128 51.9373 15.048 51.4413 15.048C49.5213 15.048 48.2093 16.216 48.2093 17.864C48.2093 18.856 48.6893 19.672 49.4733 20.152C48.7533 20.648 48.1453 21.336 48.1453 22.04C48.1453 22.632 48.5133 23 49.0733 23.16C48.3213 23.336 47.6173 23.736 47.6173 24.472C47.6173 25.448 48.8813 26.136 51.0573 26.136C53.8893 26.136 55.3293 25.016 55.3293 23.544C55.3293 22.376 54.4813 21.752 52.9293 21.752H50.4173C49.6973 21.752 49.4893 21.544 49.4893 21.144C49.4893 20.872 49.6653 20.568 49.8093 20.328C50.2733 20.552 50.8333 20.664 51.4413 20.664ZM51.4413 19.384C50.5933 19.384 49.9213 18.84 49.9213 17.864C49.9213 16.888 50.5933 16.344 51.4413 16.344C52.2893 16.344 52.9613 16.888 52.9613 17.864C52.9613 18.84 52.2893 19.384 51.4413 19.384ZM51.1373 24.792C49.7133 24.792 49.0733 24.456 49.0733 23.88C49.0733 23.608 49.2653 23.352 49.4413 23.176H52.6893C53.3773 23.176 53.7133 23.352 53.7133 23.768C53.7133 24.424 52.8173 24.792 51.1373 24.792ZM58.0608 23.16C59.6927 23.16 60.4448 21.944 60.6848 20.92V21.496C60.6848 22.616 61.3408 23 62.1728 23H63.2768V21.464H62.7808C62.4928 21.464 62.3648 21.352 62.3648 21V18.072C62.3648 16.152 61.2768 15.048 59.3408 15.048C57.6128 15.048 56.3968 15.944 55.7888 16.776L56.8608 18.056C57.3088 17.24 58.1248 16.632 59.1648 16.632C60.2368 16.632 60.5888 17.16 60.6528 17.944L58.0448 19.048C56.7808 19.544 56.0128 20.216 56.0128 21.32C56.0128 22.44 56.7808 23.16 58.0608 23.16ZM57.7408 21.048C57.7408 20.648 58.0128 20.376 58.6848 20.072L60.6848 19.176V20.008C60.6848 21.064 59.8848 21.768 58.7008 21.768C58.0448 21.768 57.7408 21.496 57.7408 21.048ZM66.4391 23V18.712C66.4391 17.416 67.2711 16.392 68.1671 16.392C68.6951 16.392 68.9031 16.744 68.9031 17.176C68.9031 17.624 68.6631 18.136 68.4071 18.392H70.2471C70.3911 18.152 70.5991 17.592 70.5991 16.84C70.5991 15.688 69.8791 15.048 68.9031 15.048C67.5111 15.048 66.7271 16.168 66.4391 17.416V15.208H64.6471V23H66.4391ZM73.4548 23V18.632C73.4548 17.352 73.9028 16.504 74.9588 16.504C76.0148 16.504 76.4628 17.048 76.4628 18.12V23H78.2548V18.632C78.2548 17.352 78.7028 16.504 79.7587 16.504C80.8148 16.504 81.2628 17.048 81.2628 18.12V23H83.0548V17.576C83.0548 15.96 82.2708 15.048 80.7828 15.048C79.2948 15.048 78.5268 16.12 78.2548 17.352C78.1748 15.88 77.4068 15.048 75.9828 15.048C74.5108 15.048 73.7428 16.104 73.4548 17.336V15.208H71.6628V23H73.4548ZM88.3219 23.16C90.0499 23.16 91.1059 22.376 91.6979 21.48L90.5939 20.328C90.3059 20.984 89.6979 21.688 88.3379 21.688C87.1059 21.688 86.2899 20.936 86.1939 19.544H91.7619C91.7939 19.384 91.8259 19.048 91.8259 18.76C91.8259 16.6 90.5299 15.048 88.1939 15.048C86.0019 15.048 84.4819 16.664 84.4819 19.112C84.4819 21.544 86.0019 23.16 88.3219 23.16ZM88.1939 16.488C89.3779 16.488 90.0819 17.16 90.2099 18.392H86.2099C86.3539 17.128 87.0899 16.488 88.1939 16.488ZM95.1891 23V18.632C95.1891 17.352 95.6371 16.504 96.9491 16.504C98.1491 16.504 98.4691 17.16 98.4691 18.12V23H100.277V17.576C100.277 15.96 99.3491 15.048 97.8291 15.048C96.2771 15.048 95.4771 16.104 95.1891 17.336V15.208H93.3971V23H95.1891ZM104.729 23.176C105.865 23.176 106.633 22.648 106.969 22.152L106.409 20.552C106.185 21 105.737 21.496 105.129 21.496C104.601 21.496 104.201 21.288 104.201 20.44V16.6H106.585V15.208H104.201V13.128L102.409 14.264V15.208H101.193V16.6H102.409V20.872C102.409 22.248 103.257 23.176 104.729 23.176Z" fill="white"/>
</svg>
